<svg xmlns="http://www.w3.org/2000/svg" xml:space="preserve" viewBox="0 0 512 512" height="512px" width="512px" version="1.1" y="0px" x="0px" fill="#ff0000"><path d="m474.64 74.27c-25.25-28.654-60.28-44.434-98.64-44.434-53.948 0-88.103 32.22-107.26 59.25-4.96 7.014-9.19 14.044-12.74 20.664-3.55-6.62-7.78-13.65-12.74-20.664-19.16-27.03-53.31-59.25-107.26-59.25-38.358 0-73.391 15.781-98.645 44.435-24.088 27.329-37.355 63.939-37.355 103.08 0 42.603 16.633 82.228 52.345 124.7 31.917 37.96 77.834 77.088 131 122.4 19.813 16.884 40.302 34.344 62.115 53.429l0.655 0.574c2.828 2.476 6.354 3.713 9.88 3.713s7.052-1.238 9.88-3.713l0.655-0.574c21.813-19.085 42.302-36.544 62.118-53.431 53.16-45.31 99.08-84.44 131-122.4 35.71-42.47 52.34-82.1 52.34-124.7 0-39.14-13.27-75.75-37.36-103.08z"/><path id="path3448" d="m301.27 376.08c-14.013 11.94-28.434 24.229-43.64 37.448-15.21-13.22-29.63-25.51-43.65-37.45-85.37-72.75-141.76-120.81-141.76-183.99 0-26.113 8.7004-50.368 24.499-68.295 15.98-18.13 38.163-28.115 62.464-28.115 33.742 0 55.555 20.787 67.91 38.226 11.083 15.64 16.866 31.407 18.838 37.459 1.6498 5.066 6.3729 8.4945 11.701 8.4945 5.3277 0 10.051-3.4285 11.701-8.4945 1.9723-6.0521 7.7553-21.819 18.838-37.46 12.355-17.438 34.167-38.225 67.91-38.225 24.301 0 46.484 9.9851 62.463 28.115 15.799 17.927 24.5 42.181 24.5 68.295 0 63.177-56.399 111.24-141.77 183.99z"/></svg>